<svg id="Calque_1" data-name="Calque 1" xmlns="http://www.w3.org/2000/svg" viewBox="0 0 267.28 63.28"><defs><style>.cls-1{fill:#59ad71;}.cls-2{fill:#244b30;}</style></defs><title>Plan de travail 1</title><path class="cls-1" d="M8.47,45.66,17.05,19H25.6l8.59,26.64H28.45L21,21.57h.61L14.15,45.66Zm6-7.11,1.28-4.67h11.2l1.26,4.67Z"/><path class="cls-1" d="M36.83,45.66v-26q1.22-.27,2.58-.48c.91-.13,1.85-.24,2.82-.32s2-.12,2.94-.12c3.81,0,6.69.7,8.63,2.08s2.91,3.55,2.91,6.49A8,8,0,0,1,55.34,32a8.26,8.26,0,0,1-3.9,2.89,16.78,16.78,0,0,1-6,1q-.76,0-1.44,0l-1.37-.08v9.89Zm8.68-14.13a7.43,7.43,0,0,0,4.31-1,3.72,3.72,0,0,0,1.4-3.24,4.54,4.54,0,0,0-.6-2.45,3.37,3.37,0,0,0-1.8-1.39A8.83,8.83,0,0,0,45.76,23a14.68,14.68,0,0,0-1.7.09c-.51.05-1,.12-1.47.2v8.08l1,.09c.3,0,.61.05.92.06Zm7,14.13L43.94,33.34h6.27L58.9,45.66Z"/><path class="cls-1" d="M74.72,46a21.32,21.32,0,0,1-8.46-1.47A10.45,10.45,0,0,1,61.18,40a15.28,15.28,0,0,1-1.7-7.59,15.13,15.13,0,0,1,1.75-7.64,10.88,10.88,0,0,1,5.12-4.57,19.92,19.92,0,0,1,8.25-1.53,28.14,28.14,0,0,1,3.07.17,22,22,0,0,1,2.94.52v4.8a26.85,26.85,0,0,0-2.75-.48,23.1,23.1,0,0,0-2.76-.16,13.64,13.64,0,0,0-5.34.9,6.12,6.12,0,0,0-3.14,2.87,11.15,11.15,0,0,0-1,5.19,11.08,11.08,0,0,0,1,5,6,6,0,0,0,2.89,2.83,11.41,11.41,0,0,0,4.83.9c.73,0,1.46,0,2.18-.09s1.39-.14,2-.24L75.93,43V32.7h5.44V45.39q-1.71.27-3.36.42C76.91,45.91,75.82,46,74.72,46Z"/><path class="cls-1" d="M86.05,45.66V19h18.7V23.7H91.82V41h13.11v4.68Zm3.47-11.29V29.69h13.39v4.68Z"/><path class="cls-1" d="M108.62,45.66V19h5.87L127.1,38.4h-1V19h5.5V45.66h-5.86L113.12,26.27h1V45.66Z"/><path class="cls-1" d="M142.64,45.66V23.9h-8.41V19h22.66V23.9h-8.38V45.66Z"/><path class="cls-2" d="M167.05,46q-1.14,0-2.43-.06c-.87,0-1.74-.11-2.62-.19s-1.71-.17-2.48-.27V19.61q1.24-.27,2.67-.48c.94-.13,1.92-.24,2.92-.32s2-.12,3-.12a21.48,21.48,0,0,1,6.48.82A7.09,7.09,0,0,1,178.24,22a6.87,6.87,0,0,1,1.19,4.11,6.51,6.51,0,0,1-.57,2.75,5.42,5.42,0,0,1-1.64,2.07,5.88,5.88,0,0,1-2.63,1.14l0-.23a6.76,6.76,0,0,1,4.06,2,6.12,6.12,0,0,1,1.5,4.39,7.43,7.43,0,0,1-.71,3.31,6.27,6.27,0,0,1-2.26,2.45,11.76,11.76,0,0,1-4.06,1.52A31.2,31.2,0,0,1,167.05,46Zm1.54-4.26a12.49,12.49,0,0,0,3.69-.43A3.14,3.14,0,0,0,174.77,38a3.27,3.27,0,0,0-1.21-2.82,6.69,6.69,0,0,0-3.94-.9h-5V29.85h4.44a8.94,8.94,0,0,0,2.86-.37,2.91,2.91,0,0,0,1.54-1.15,3.55,3.55,0,0,0,.48-1.92,3,3,0,0,0-1.15-2.63,7.14,7.14,0,0,0-4-.82,18,18,0,0,0-1.87.09c-.58.06-1.15.14-1.71.23V41.53l1.72.12C167.47,41.68,168,41.7,168.59,41.7Z"/><path class="cls-2" d="M181.37,45.66,190,19h8.55l8.58,26.64h-5.74l-7.47-24.09h.62l-7.44,24.09Zm6-7.11,1.28-4.67h11.19l1.26,4.67Z"/><path class="cls-2" d="M209.74,45.66V19h5.87L228.23,38.4h-1V19h5.51V45.66h-5.87L214.24,26.27h1V45.66Z"/><path class="cls-2" d="M237.51,45.66V19h5.86V45.66Zm5-11V29.46h4v5.16Zm11,11L244.23,32.1,253,19h6.16l-9.18,13.71.1-1.51,9.83,14.44Z"/></svg>